# xmcd CD database file
#
# Track frame offsets:
#	150
#	21322
#	41642
#	64085
#	84205
#	105747
#	126582
#	149470
#	170730
#	189545
#
# Disc length: 2816 seconds
#
# Revision: 2
# Processed by: cddbd v1.4PL0 Copyright (c) Steve Scherf et al.
# Submitted via: CDex 1.51
#
DISCID=900afe0a
DTITLE=Charlie Sexton - Charlie Sexton
DYEAR=1989
DGENRE=Rock
TTITLE0=Don't Look Back
TTITLE1=Seems So Wrong
TTITLE2=Blowing Up Detroit
TTITLE3=I Can't Cry
TTITLE4=While You Sleep
TTITLE5=For All We Know
TTITLE6=Battle Hymn of the Republic
TTITLE7=Question This
TTITLE8=Save Yourself
TTITLE9=Cry Little Sister
EXTD=YEAR: 1989
EXTT0=
EXTT1=
EXTT2=
EXTT3=
EXTT4=
EXTT5=
EXTT6=
EXTT7=
EXTT8=
EXTT9=
PLAYORDER=
